<?xml version="1.0" encoding="utf-8"?>
<!-- Generator: Adobe Illustrator 23.0.0, SVG Export Plug-In . SVG Version: 6.00 Build 0)  -->
<svg version="1.1" id="Calque_1" xmlns="http://www.w3.org/2000/svg" xmlns:xlink="http://www.w3.org/1999/xlink" x="0px" y="0px"
	 viewBox="0 0 200 200" style="enable-background:new 0 0 200 200;" xml:space="preserve">
<style type="text/css">
	.st0{fill:#1F1D1E;}
</style>
<path class="st0" d="M198.1,162.4c-0.1-0.8-0.4-0.7-0.7,0.3c-0.2,0.7-1.2,1.5-1.5,1.2c-0.1-0.1-0.2-0.3,0-0.4
	c0.1-0.1,0.3-0.5,0.4-0.8c0.2-0.9,0.3-1.1,0.6-0.8c0.1,0.1,0.3,0.1,0.4,0c0.1-0.1,0.2-0.5,0.1-0.7c0-0.4-0.1-0.4-0.3-0.1
	c-0.2,0.3-0.4,0.3-0.5,0c-0.1-0.2-0.3-0.5-0.6-0.7c-0.6-0.4-0.8-1.4-0.5-1.9c0.4-0.6-0.2-1.4-1.1-1.4c-0.4,0-0.8-0.2-1-0.5
	c-0.3-0.5-0.3-1.6-0.1-1.9c0.2-0.3,1.1,0,1.6,0.5c0.5,0.4,0.5,0.4,0.4-0.2c0-0.6-0.7-1.4-1-1.1c-0.1,0.1-0.4,0.2-0.8,0.1
	c-0.5,0-0.7-0.2-0.8-0.6c-0.2-0.8-1.8-1.9-3.2-2.1c-0.9-0.2-1.1-0.3-1-0.6c0.1-0.2,0-0.4-0.3-0.5c-0.9-0.3-3.3-2.1-3.8-2.8
	c-0.3-0.4-0.9-0.9-1.4-1.1c-0.6-0.2-0.9-0.5-0.9-0.8c0-0.5-0.4-0.9-1.9-1.8c-0.7-0.5-1-0.5-1.5-0.2c-0.3,0.2-0.7,0.3-0.9,0.2
	c-0.2-0.2-0.2-0.3,0.4-0.7c0.4-0.3,0.9-0.4,1.3-0.4c0.4,0,0.6-0.1,0.5-0.3c-0.1-0.2-0.3-0.2-0.6-0.2c-0.3,0.1-0.5-0.1-0.6-0.3
	c-0.2-0.5-5.7-4.9-5.8-4.7c-0.1,0.2-1.2-0.8-2.7-2.4c-0.3-0.4-0.7-0.6-0.8-0.5c-0.1,0.1-0.9-0.4-1.8-1c-1.7-1.2-2.2-1.4-2-0.7
	c0.1,0.2,0,0.5-0.1,0.6c-0.1,0.1,0.6,0.7,1.6,1.5c2.9,2.2,3.4,2.4,3.9,2.2c0.5-0.2,0.5-0.2,0.4,0.4c-0.1,0.4,0,0.6,0.1,0.5
	c0.4-0.1,0.8,0.9,0.6,1.3c-0.2,0.3-0.6,0.1-1.9-0.9c-0.9-0.7-1.7-1.3-1.9-1.4c-0.1-0.1-0.3-0.1-0.3,0c-0.2,0.2-8.3-6.4-8.6-7
	c-0.2-0.5-0.2-0.5,0.3-0.6c0.4-0.1,0.5-0.2,0.4-0.3c-0.1-0.1-0.7-0.3-1.3-0.2c-0.8,0-1.3-0.2-2.7-1.4c-2-1.6-3-2.8-2.5-2.9
	c0.2,0,0.3,0,0.2,0.1c-0.1,0.1,0.1,0.1,0.4,0.1c0.3,0,0.6-0.1,0.7-0.3c0.1-0.1-0.2-0.3-0.6-0.3c-0.4,0-1-0.2-1.2-0.3
	c-0.2-0.2-0.5-0.2-0.6,0c-0.2,0.4-2.6-1.3-2.5-1.8c0.1-0.3-0.1-0.4-0.7-0.5c-1-0.2-1.4-0.5-1.2-0.9c0.2-0.4-1.1-1.7-2.3-2.2
	c-0.8-0.4-0.9-0.5-0.7-0.8c0.1-0.2,0.1-0.3-0.1-0.3c-0.3,0-3-1.4-4.1-2.2c-0.3-0.2-0.7-0.6-0.8-0.9c-0.1-0.3-0.2-0.4-0.3-0.1
	c-0.1,0.3-0.4,0.2-1.1-0.4c-0.7-0.5-0.9-0.9-0.8-1.2c0.1-0.3,0-0.3-0.3-0.3c-0.3,0.1-0.8-0.2-1.2-0.5c-0.4-0.3-1.4-1.1-2.3-1.7
	c-0.8-0.6-2.2-1.7-3-2.4c-4.6-3.7-8.9-7.1-9.4-7.5c-0.3-0.3-0.9-0.7-1.4-1c-0.4-0.3-0.9-0.5-1-0.5c-0.3,0.2-4-3-4.1-3.5
	c0-0.3-0.2-0.4-0.5-0.4c-0.8,0-2.3-0.9-2.2-1.3c0.1-0.2,0-0.3-0.3-0.2c-0.6,0.2-2.6-1.3-2.9-2.1c-0.1-0.4-0.4-1-0.7-1.4l-0.4-0.7
	l0.7,0.3c1.1,0.4,1.2,0,0.3-0.8c-0.6-0.5-1.1-0.6-1.4-0.5c-0.4,0.2-0.5,0.3-0.4,0.5c0.2,0.4-0.2,0.8-0.5,0.5c-0.2-0.1-0.6-0.1-1,0
	c-0.6,0.2-1.7,0.3-1.9,0.1c-0.3-0.2,0.3-0.5,0.8-0.4c0.5,0.1,0.5,0.1,0.1-0.4c-0.3-0.3-0.4-0.6-0.2-0.7c0.4-0.3-0.2-0.6-1.1-0.6
	c-0.5,0-1.3-0.4-2.2-1c-0.8-0.5-1.7-1-2.1-1.1c-0.4-0.1-0.8-0.2-0.9-0.4c-0.1-0.2-0.4-0.3-0.6-0.2c-0.3,0-0.3-0.1,0.2-0.5
	c0.5-0.5,0.5-0.5,0-0.4c-0.3,0.1-0.9,0-1.2-0.3c-0.6-0.4-0.5-0.9,0.1-0.8c0.3,0,0.4,0,0.4-0.4c0-0.4-0.1-0.4-0.3-0.2
	c-0.2,0.1-0.4,0.2-0.5,0.1c-0.1-0.1-0.6,0-1.1,0.1c-0.6,0.2-0.9,0.2-1.3-0.2c-0.3-0.3-0.7-0.5-1.1-0.5c-0.8,0.1-4.6-2.3-4.3-2.7
	c0.2-0.3,1.6,0.2,1.7,0.6c0,0.2,0.2,0.1,0.4-0.1c0.3-0.3,0.2-0.5-0.4-0.7c-1-0.4-3.5-1.6-4.1-2c-0.8-0.5-1.5-0.6-1.7-0.4
	c-0.1,0.1-0.4,0.1-0.6-0.1c-0.2-0.2-0.5-0.2-0.7-0.2c-0.2,0.1-0.3,0-0.4-0.2c-0.1-0.3-0.5-0.5-1.2-0.6c-1-0.2-4.8-2.3-4-2.2
	c0.2,0,0.4-0.1,0.5-0.2c0.1-0.1-0.2-0.2-0.6-0.2c-0.4,0-1-0.2-1.2-0.4c-0.3-0.2-0.8-0.5-1.2-0.6c-1-0.3-1-0.9,0.1-0.9
	c0.9,0,1.7-0.5,1.3-0.8c-0.1-0.1-0.4-0.1-0.5,0c-0.3,0.2-0.7,0-0.4-0.3c0.1-0.1,0.5-0.2,0.8-0.2c0.5,0,0.6,0.1,0.6,0.6
	c-0.1,0.4,0.1,0.6,0.5,0.7c0.6,0.2,1.6-0.4,1.1-0.8c-0.1-0.1-0.1-0.3-0.1-0.5c0.1-0.2,0-0.3-0.2-0.3c-0.2,0-0.4,0.2-0.5,0.5
	c-0.1,0.3-0.2,0.3-0.3-0.1c-0.1-0.3,0-0.6,0.2-0.8c0.4-0.3,0.2-0.6-0.3-0.4c-0.2,0.1-0.7-0.1-1.1-0.3c-0.4-0.2-0.8-0.4-0.8-0.4
	c-0.1,0-1.6-1-3-1.9c-0.7-0.5-1.2-0.7-1.3-0.5c-0.1,0.2-0.4,0.3-0.6,0.2c-0.2,0-0.4,0.1-0.5,0.3c-0.2,0.4-1.5,0.3-2.7-0.4
	c-0.4-0.2-1.5-0.7-2.4-1.1c-0.9-0.4-1.8-0.9-2-1c-0.2-0.2-1.1-0.7-2-1c-2.1-0.9-4.4-2.3-4.8-2.9c-0.3-0.6-0.1-1.1,0.4-0.7
	c0.2,0.1,0.5,0.2,0.8,0c0.6-0.2,0.5-0.3-0.4-0.5c-0.4-0.1-0.9,0-1.3,0.2c-0.8,0.4-2.6-0.9-2-1.4c0.3-0.2,0.3-0.3,0-0.4
	c-0.2,0-0.4,0-0.5,0.1c-0.2,0.3-1.4,0.1-1.9-0.3c-0.2-0.2-0.8-0.5-1.2-0.6c-0.5-0.1-1.1-0.6-1.6-1c-0.5-0.5-0.9-0.8-1.4-0.7
	c-0.5,0.1-0.8-0.1-1.2-0.5c-0.3-0.4-0.7-0.6-1.2-0.5c-0.7,0.1-0.8,0.1-0.5-0.5c0.2-0.3,0.2-0.7,0-0.9c-0.2-0.1-0.3-0.4-0.2-0.6
	c0-0.2-0.1-0.5-0.3-0.6c-0.2-0.2-0.4-0.5-0.3-0.6c0.1-0.2-0.1-0.3-0.4-0.3c-0.7,0-0.7-0.3,0.1-0.5c0.6-0.2,1.3,0.5,1,0.9
	c-0.2,0.3,0.4,0.8,0.8,0.6c0.4-0.2,1.3,0.5,1.2,0.9c-0.1,0.2,0.1,0.4,0.5,0.4c0.3,0,0.5,0.2,0.5,0.2c-0.1,0.1,0.2,0,0.7-0.2
	c0.5-0.2,0.7-0.2,0.6,0c-0.1,0.2,0,0.4,0.3,0.4c0.9,0,1.7,0.2,2.6,0.5l0.9,0.4l-1-0.8c-0.6-0.5-1.1-0.8-1.3-0.7
	c-0.3,0.2-1.8-0.6-3.9-2.1c-0.7-0.5-1.6-1-1.8-1.1c-0.3-0.1-1.3-0.7-2.3-1.3c-1.7-1.1-1.7-1.2-1.3-1.7c0.3-0.4,0.3-0.6,0-0.8
	c-0.3-0.2-0.5-0.1-0.8,0.4c-0.3,0.4-0.4,0.5-0.5,0.3c-0.1-0.2-0.5-0.3-0.9-0.2c-0.8,0.1-0.9-0.1-0.4-1.2c0.1-0.2-0.2-0.3-0.6-0.3
	c-0.6,0-0.7-0.1-0.6-0.5c0.1-0.3,0-0.4-0.3-0.4c-0.3,0.1-0.5,0-0.5-0.1c0-0.1-0.2-0.4-0.4-0.7c-0.3-0.3-0.5-0.3-0.7,0
	c-0.1,0.2-0.4,0.4-0.6,0.4c-0.2,0-0.2-0.2,0.1-0.4c0.3-0.2,0.2-0.5-0.3-1c-0.8-0.9-0.9-0.9-1-0.1c-0.1,0.7-0.3,0.8-0.6,0.2
	c-0.2-0.3-0.1-0.6,0.1-0.7c0.5-0.4,0.3-0.9-0.2-0.7c-0.5,0.1-0.9-0.1-2.8-1.2c-2-1.2-2.5-1.6-2.3-1.9c0.1-0.3,0-0.4-0.4-0.5
	c-1-0.2-2.3-1.4-2.3-2.2c0-0.7-0.2-0.9-2-2.1c-1.7-1.2-5.4-4.6-5.4-5c0-0.1,0.2-0.4,0.4-0.8c0.9-1.6,0.9-3,0-2.1
	c-0.2,0.2-0.8,0.4-1.2,0.4c-0.6,0-1,0.3-1.6,0.8c-0.4,0.5-0.9,0.8-0.9,0.7c-0.1-0.1-0.3,0.1-0.5,0.4c-0.2,0.3-0.3,0.5-0.4,0.5
	c-0.1,0-0.3-0.1-0.5,0c-0.4,0-0.4,0.1-0.5,0.8c-0.1,0.7-0.1,0.7-0.9,0.9c-0.5,0.1-0.8,0.4-0.7,0.6c0.1,0.5-1.4,2.2-2,2.3
	c-0.3,0.1-0.5,0.2-0.3,0.3c0.2,0.1,0,0.4-0.8,1.2c-0.7,0.8-1,1.2-0.9,1.4C6,33.8,6,34,5.7,34.1c-0.2,0.1-0.5,0.3-0.6,0.6
	c-0.2,0.4-0.1,0.4,0.3,0.1c0.4-0.3,0.3-0.1-0.2,0.6c-0.4,0.5-0.6,1-0.5,1.1c0.1,0.1,0,0.3-0.2,0.4c-0.2,0.2-0.4,0.6-0.4,1
	c0,0.4-0.1,0.8-0.3,1c-0.2,0.2-0.1,0.4,0.3,0.5c0.5,0.2,0.5,0.3,0,0.8c-0.4,0.6-0.4,0.7,0.1,1.1c0.4,0.3,0.5,0.5,0.3,0.6
	C4.4,42,4,41.9,3.7,41.6C3.4,41.3,3,41,2.8,41c-0.5,0-0.8,0.5-0.4,0.7c1.3,0.7,1.4,1.5,0.2,1.4c-0.4,0-0.7,0-0.7,0.1
	c-0.1,0.1,0.9,1,2,2C5.4,46.5,6,47.2,6,47.5c-0.1,0.3,0,0.2,0.2-0.2c0.4-0.9,1.1-0.6,2.6,0.9c0.6,0.6,1.2,1,1.3,0.9
	c0.2-0.3,1.1,0,2.5,0.9c0.6,0.4,1.5,0.8,2,0.9c0.7,0.1,1,0.4,1.3,0.9c0.5,0.8,1.3,1.2,1.1,0.5c0-0.2,0.4,0.1,1,0.7
	c0.7,0.7,1.2,1,1.3,0.8c0.1-0.2,0-0.3-0.3-0.4c-0.8-0.3-0.3-0.7,0.5-0.5c0.5,0.1,0.8,0.1,1-0.3c0.2-0.4,0.4-0.3,1.3,0.3
	c1.1,0.9,1.9,1,2.2,0.4c0.2-0.4,1.4-0.1,1.2,0.3c-0.1,0.4,1.4,1.3,1.9,1.1c0.2-0.1,0.5,0,0.7,0.1c0.2,0.1,0.5,0.2,0.9,0
	c0.6-0.2,0.8,0.2,0.4,0.7c-0.3,0.4,1.5,1.5,2.3,1.4c0.4,0,0.8,0.1,1,0.4c0.2,0.4,0.5,0.5,0.9,0.3c0.5-0.1,1,0.1,2.6,1.3
	c1.2,0.9,2.1,1.4,2.3,1.4c0.3-0.1,0.2-0.2-0.1-0.5c-0.3-0.2-0.4-0.5-0.3-0.7c0.1-0.3-0.2-0.5-0.9-0.8c-2.4-0.9-2.4-0.9-2.3-1.6
	c0.1-0.6,0.1-0.6-0.5-0.3c-0.4,0.2-0.8,0.2-1,0.1c-0.3-0.3-0.1-1.4,0.3-1.6c0.1,0,0.3-0.1,0.4-0.2c0.9-1.1,1.5-1.1,2.7,0
	c0.3,0.3,0.8,0.5,1.3,0.5c0.4,0,0.9,0.1,1.1,0.2c0.5,0.4-0.3,0.7-1.3,0.7c-0.5,0-0.9,0.1-0.9,0.2c0.1,0.2,0.5,0.3,1,0.3
	c0.5,0,0.9,0.1,1,0.1c0.1,0.1,0.3,0,0.6-0.1c0.3-0.1,0.9,0,1.4,0.3c0.5,0.3,1.2,0.6,1.5,0.6c0.3,0,0.6,0.1,0.8,0.2
	c0.2,0.1,0.5,0.2,0.8,0.1c0.3-0.1,1.2,0.2,1.9,0.5c2,0.9,2.2,1.2,1.7,1.6c-0.3,0.2-0.3,0.3,0,0.4c0.2,0,0.5,0.2,0.7,0.3
	c0.2,0.2,0.3,0.1,0.2-0.2c-0.1-0.6,0.6-0.8,1-0.3c0.2,0.4,0.5,0.5,0.8,0.3c0.6-0.2,1.1,0,0.8,0.4c-0.2,0.2,0.3,0.6,1.5,0.9
	c1,0.3,1.8,1,1.5,1.3c-0.1,0.1-0.3,0.2-0.4,0.1c-0.1-0.1-0.5-0.1-1,0c-0.7,0.1-0.8,0-1-0.5c-0.2-0.7-1.1-1-0.9-0.3
	c0.1,0.6,0.8,1.1,2,1.5c0.8,0.3,1.1,0.5,1.1,0.8c0,0.3,0.1,0.4,0.4,0.3c0.3-0.1,0.9,0.2,1.6,0.8c0.8,0.7,1.2,0.9,1.4,0.7
	c0.3-0.3,2.4,0.4,2.5,0.8c0,0.2,0.4,0.2,0.8,0.2c0.5-0.1,0.7,0,0.7,0.3c0,0.3,0.1,0.4,0.5,0.4c0.9,0,1.1,0.1,2.3,1
	c0.6,0.5,1.1,0.7,1.1,0.5c0-0.2,0.3-0.4,0.5-0.5c0.6-0.3,2.1,1,1.6,1.5c-0.2,0.2-0.2,0.3,0.1,0.2c0.2-0.1,0.5,0.1,0.7,0.3
	c0.1,0.2,0.4,0.3,0.6,0.2c0.2-0.1,0.3,0,0.4,0.5c0.1,0.9-0.1,1.1-1.1,0.7c-0.4-0.2-0.9-0.2-1.1-0.2c-0.2,0.1-1-0.1-1.7-0.4
	c-1.1-0.5-1.3-0.6-1.2-1c0.1-0.3-0.1-0.5-0.3-0.5c-0.3,0-0.4-0.1-0.4-0.3c0.1-0.5-0.2-0.6-0.5-0.2c-0.3,0.4-1.4-0.5-1.5-1.1
	c0-0.2-0.1-0.2-0.3-0.1c-0.1,0.1-0.3,0.1-0.5,0c-0.2-0.1-0.6,0-0.9,0.2c-0.6,0.4-1.3,0.3-2.3-0.4c-0.2-0.1-0.9-0.4-1.6-0.7
	c-0.7-0.2-2.2-1-3.3-1.8c-2.1-1.4-2.5-1.6-2.3-0.8c0.1,0.3,0,0.4-0.4,0.1c-0.3-0.2-0.6-0.3-0.7-0.2c-0.1,0.1-0.6,0-1.1-0.2
	c-0.4-0.2-1.2-0.2-1.7-0.1c-1.3,0.4-2.4,0.2-3.3-0.4c-0.4-0.3-0.9-0.5-1-0.5c-0.8,0.5,1.8,2.6,2.6,2.2c0.3-0.1,0.6,0,1.1,0.6
	c0.6,0.8,1.2,0.8,0.8-0.1c-0.3-0.5,0.2-0.9,0.6-0.6c0.8,0.6,1,0.6,1.2,0.3c0.1-0.2,0.4-0.4,0.5-0.4c0.4,0,0.6,0.7,0.3,0.9
	c-0.4,0.2,0.7,1,1.3,1c0.4,0,0.5,0.1,0.3,0.5c-0.1,0.4-0.1,0.5,0.2,0.4c0.2-0.1,1.3,0.4,2.4,1.1c1.1,0.6,2.3,1.3,2.7,1.4
	c0.4,0.1,0.8,0.3,0.9,0.5c0.1,0.2,0.3,0.2,0.6,0.1c0.4-0.2,0.3-0.3-0.7-0.9c-0.8-0.5-1.1-0.7-0.8-0.8c0.4-0.1,2.2,0.6,3.3,1.3
	c0.3,0.2,0.8,0.3,1.1,0.3c0.3,0,1.4,0.5,2.4,1.2c2.4,1.6,3,1.9,3.4,1.6c0.3-0.2,0.6-0.1,1.2,0.6c0.6,0.6,1.5,1.1,2.8,1.6
	c1.1,0.4,2.2,0.9,2.6,1.2c0.4,0.3,0.8,0.4,0.9,0.3c0.1-0.1,0.3-0.2,0.4-0.1c0.1,0.1,0.3,0.1,0.4-0.1c0.1-0.1,0.3-0.2,0.4,0
	c0.2,0.1,0.1,0.3-0.2,0.6c-0.6,0.5-0.4,0.7,0.7,0.7c0.5,0,0.9-0.2,1-0.5c0.2-0.4,0.4-0.4,1.7,0.4c0.8,0.5,1.8,1,2.2,1.1
	c0.5,0.2,0.6,0.3,0.4,0.5c-0.4,0.3,0.6,0.9,1.3,0.8c0.2,0,0.6,0.1,0.8,0.3c0.8,0.6,2.4,1.6,3.2,1.8c0.6,0.2,0.8,0.3,0.9,0.9
	c0.1,0.6,0.2,0.6,0.5,0.3c0.2-0.2,0.6-0.1,0.8,0.1c0.7,0.7,1.3,0.7,1.6,0.1c0.3-0.6,0.7-0.6,2.2,0.3c1.1,0.6,1.1,0.7,0.7,0.9
	c-0.4,0.2-0.4,0.3,0.1,0.6c1.1,0.8,1.6,1.7,1.2,2.3c-0.2,0.3-0.6,0.5-0.8,0.4c-0.2,0-0.6,0-0.9,0.1c-0.4,0.1-0.4,0.2,0.2,0.4
	c1.6,0.7,2.7,1,2.9,0.8c0.1-0.1,0.3-0.1,0.4,0c0.2,0.1,0.1,0.3-0.1,0.5c-0.3,0.2-0.2,0.4,0.4,0.6c0.4,0.2,1,0.3,1.3,0.2
	c0.5-0.1,0.5-0.1,0.3,0.5c-0.3,0.8,0.1,1.2,0.4,0.4c0.2-0.4,0.4-0.5,1.1-0.2c0.6,0.3,0.8,0.5,0.8,0.8c-0.1,0.3,0,0.4,0.2,0.2
	c0.2-0.1,0.4-0.1,0.6,0c0.2,0.1,0.7,0.2,1.1,0.1c0.7-0.1,0.8-0.1,1,0.4c0.1,0.5,0.1,0.6-0.3,0.6c-0.2,0-0.5-0.1-0.5-0.2
	c0-0.1-0.4,0-0.8,0.2l-0.8,0.4l0.6,0.2c0.3,0.1,1.3,0.2,2.3,0.2c1.9,0,2.5,0.2,1.9,0.7c-0.2,0.2-0.3,0.4-0.2,0.5
	c0.1,0.1,0.2,0.3,0.3,0.4c0.1,0.1,0.3,0.4,0.6,0.6c0.3,0.3,0.3,0.5,0.1,0.7c-0.4,0.3,0,0.9,0.5,0.7c0.1,0,0.5,0.1,0.7,0.2
	c0.3,0.2,0.6,0.4,0.8,0.5c0.2,0.1,1,0.7,1.9,1.5c1.3,1.1,1.6,1.4,1.6,2.1c0,1,0.1,1.1,0.3,0.5c0.1-0.2,0.3-0.5,0.5-0.5
	c0.2,0,0.3-0.2,0.3-0.5c0-0.4,0.1-0.4,0.5-0.2c0.2,0.2,0.6,0.4,0.8,0.5c0.7,0.4,0.2,1-0.5,0.7c-0.4-0.1-0.8-0.1-0.9,0
	c-0.3,0.3,0.5,0.9,1.2,1c0.3,0,0.9,0.3,1.2,0.6c0.5,0.4,0.6,0.5,0.8,0.1c0.2-0.4,0.3-0.3,1,0.1c0.5,0.4,0.7,0.7,0.6,0.9
	c-0.1,0.2-0.3,0.1-0.4-0.1c-0.1-0.2-0.3-0.3-0.5-0.3c-0.2,0.1,1,2.2,1.5,2.4c0.2,0.1,0.7,0,1.1-0.2c0.6-0.3,0.9-0.2,1.4,0.1
	c0.4,0.3,0.8,0.4,1.2,0.2c0.7-0.3,1.3-0.1,0.7,0.3c-0.2,0.2-0.2,0.3,0.3,0.5c0.4,0.2,0.5,0.4,0.2,0.6c-0.2,0.1-0.5,0.2-0.7,0.1
	c-0.2-0.1-0.5-0.1-0.6-0.1c-0.1,0.1-0.5,0.1-1,0c-0.6,0-0.7,0-0.6,0.3c0.1,0.2,0.5,0.3,0.9,0.2c0.4,0,0.7,0,0.8,0.2
	c0,0.1,0.6,0.7,1.2,1.3c1.1,1,1.2,1,1.9,0.7c0.7-0.3,0.9-0.3,1.9,0.4c0.6,0.4,1.3,0.9,1.6,1c0.9,0.5,1.6,1.4,1.4,1.5
	c-0.1,0.1-0.2,0.3-0.1,0.5c0.1,0.2,0.3,0.2,0.4,0c0.3-0.4,1.2-0.2,1.2,0.3c0,0.2,0.3,0.4,0.7,0.4c0.6,0,1.7,0.9,1.6,1.3
	c0,0.4-0.5,0.3-1-0.2c-0.3-0.3-0.7-0.4-0.8-0.3c-0.2,0.1-0.2,0.3,0,0.4c0.4,0.3,0.7,0.9,0.5,1.1c-0.2,0.2-0.7-0.1-0.9-0.6
	c-0.4-0.8-1.9-1.7-2.5-1.6c-0.3,0.1-0.7,0.1-0.8,0c-0.1-0.1-0.3,0-0.4,0.1c-0.3,0.4,0.2,0.6,0.9,0.5c0.5-0.1,0.7,0,0.8,0.3
	c0.1,0.6,3.1,2.8,3.4,2.5c0.1-0.1,0.5-0.1,0.7,0.1c0.4,0.3,0.4,0.3-0.2,0.6c-0.6,0.2-0.6,0.3,0.3,0.8c1.1,0.8,3.1,0.9,3.3,0.2
	c0.1-0.3,0.3-0.3,0.4-0.1c0.1,0.2,0.6,0.2,0.9,0.1c0.5-0.2,0.6-0.2,0.6,0.2c-0.1,0.3,0,0.5,0.2,0.4c0.5,0,0,0.7-0.5,0.8
	c-0.9,0.2,1.1,1.1,2.6,1.2c1.5,0.1,3.2,0.9,2.9,1.3c-0.1,0.1-0.4,0.2-0.5,0.2c-0.2,0-0.4,0-0.5,0.1c-0.3,0.4,1.4,0.6,1.8,0.2
	c0.5-0.5,0.9-0.3,0.5,0.3c-0.4,0.5-0.1,0.7,0.5,0.3c0.3-0.2,0.8-0.1,1.7,0.5c0.4,0.3,0.8,0.5,1.2,0.7c0.2,0.1,0.4,0.2,0.5,0.3
	c0.4,0.1,0.4,0.3,0.1,0.7c-0.3,0.4-0.5,0.4-1.1-0.1c-0.8-0.6-1.3-0.5-0.9,0.3c0.1,0.2,0.5,0.4,0.8,0.4c0.4,0,0.6,0.1,0.5,0.3
	c-0.1,0.2,0.1,0.3,0.6,0.3c0.4,0,0.7,0.1,0.7,0.2c0,0.1,0.2,0.1,0.6-0.1c0.6-0.3,0.6-0.3,0.6,0.6c0,0.5,0.1,0.9,0.3,0.9
	c0.2,0,0.2,0.2,0.1,0.5c-0.3,0.6,0,0.8,0.4,0.3c0.2-0.3,0.3-0.3,0.3,0.1c0,0.3,0.3,0.7,0.7,1c0.4,0.3,0.7,0.6,0.7,0.7
	c0,0.1,0.2,0.2,0.5,0.2c0.3,0,0.4,0.1,0.4,0.1c-0.2,0.3-1.1,0.5-1.4,0.3c-0.1-0.1-0.5-0.1-0.8-0.1c-0.4,0.1-0.6-0.1-0.7-0.4
	c-0.1-0.2-0.3-0.5-0.5-0.5c-0.2,0-0.4-0.2-0.4-0.5c0-0.5-0.9-0.8-1.2-0.4c-0.2,0.2,0.4,0.8,2.4,2.4c1.5,1.1,2.9,2.4,3.3,2.9
	c0.4,0.4,0.7,0.7,0.8,0.6c0.1-0.1,0.8,0.3,1.6,1.1c1,1,1.5,1.2,1.6,1c0.2-0.2,0.2-0.2,0.2,0.2c0,0.3,0.3,0.5,0.7,0.6
	c0.4,0.1,1,0.5,1.4,1c0.4,0.5,0.9,0.7,1,0.6c0.1-0.1,0.5,0.1,1,0.6c0.7,0.7,1,0.8,1.7,0.7c0.6-0.1,1,0,1.2,0.4c0.4,0.6,0,1-1,0.8
	c-0.6-0.1-0.7-0.1-0.6,0.2c0.2,0.6,0.8,1,1,0.7c0.1-0.1,0.4,0,0.6,0.3c0.2,0.3,0.5,0.5,0.7,0.4c0.2-0.1,0.6,0.2,1.2,0.8
	c0.6,0.6,1.1,1,1.5,1c0.9,0.1,2.4,0.8,2,1c-0.6,0.3-0.5,0.8,0.2,0.7c1.2-0.2,1.1,0.4-0.3,0.8c-0.7,0.2-1,0.1-2-0.6
	c-0.7-0.5-1.5-1-1.9-1.3c-0.4-0.2-1.1-0.8-1.5-1.3c-0.4-0.5-0.9-0.8-1-0.7c-0.1,0.1-0.7-0.2-1.2-0.6c-1.6-1.3-4.5-3.2-6.3-4
	c-0.5-0.2-0.7-0.5-0.6-0.6c0.2-0.3-0.7-1.1-1-0.9c-0.3,0.2-1.1-0.6-2.4-2.3c-1.5-1.9-1.6-2-2.3-1.7c-0.9,0.3-2-0.1-2.3-1
	c-0.1-0.4-0.3-0.6-0.6-0.5c-0.2,0.1-0.6,0-0.8-0.2c-0.3-0.2-0.6-0.3-0.8-0.2c-0.2,0.1,0.2,0.5,1.3,1.3c2.3,1.6,2.7,1.8,3.1,1.7
	c0.5,0,2.5,1.7,2.4,2.1c0,0.1,0.3,0.6,0.8,1c0.5,0.4,0.9,0.9,0.9,1.1c0.1,0.6-1.2-0.1-3.3-1.6c-0.9-0.7-1.8-1.3-1.9-1.2
	c-0.1,0.1-0.5,0-0.8-0.3c-0.3-0.2-0.5-0.2-0.3-0.1c0.1,0.2,0.1,0.4,0.1,0.5c-0.2,0.3-1.4-0.3-1.7-1c-0.1-0.3-0.6-0.7-0.9-0.9
	c-0.6-0.3-0.7-0.2-0.5,0.2c0.1,0.4,0.1,0.4-0.4,0.1c-0.3-0.2-0.6-0.3-0.8-0.1c-0.1,0.2,0,0.3,0.3,0.4c1.1,0.3,1.8,0.7,2.1,1.3
	c0.2,0.4,0.4,0.6,0.6,0.6c1.1-0.3,3.4,1.4,3.2,2.2c0,0.2,0.3,0.3,0.8,0.4c0.5,0.1,1.2,0.4,1.6,0.8c0.4,0.4,0.8,0.6,1,0.4
	c0.3-0.3,2.8,1.3,3.2,2c0.2,0.3,0.8,0.7,1.5,0.9c0.8,0.2,1.2,0.5,1.2,0.7c-0.1,0.6,0.4,1.2,0.9,1c0.4-0.2,0.8,0,1.4,0.6
	c0.5,0.4,1.4,1.1,2,1.4c0.7,0.4,1,0.7,0.9,0.8c-0.1,0.1-0.3,0.2-0.6,0.1c-0.3-0.1-0.3,0,0,0.2c0.2,0.2,0.5,0.2,0.7,0
	c0.2-0.2,0.6-0.1,0.8,0.1c0.5,0.4,1.1,0.3,1-0.2c0-0.1-0.2-0.2-0.4,0c-0.2,0.2-0.3,0.1-0.2-0.3c0.1-0.3,0-0.7-0.3-0.9
	c-0.4-0.3-0.4-0.4,0.1-0.5c0.8-0.4,3.6,2.2,2.9,2.7c-0.2,0.1-0.5,0-0.8-0.4c-0.4-0.4-0.6-0.5-0.7-0.2c-0.1,0.2-0.4,0.4-0.8,0.5
	c-0.6,0.1-0.6,0.1-0.3,0.6c0.2,0.4,0.5,0.6,0.7,0.5c0.2-0.1,0.3-0.2,0.1-0.3c-0.1-0.1,0-0.4,0.2-0.7c0.2-0.3,0.5-0.4,0.5-0.4
	c0.1,0.1,0,0.2-0.2,0.3c-0.6,0.4,0.9,0.7,2,0.5c1.1-0.3,1.3-0.2,1,0.5c-0.2,0.4,0,0.6,0.9,1.2c1.3,0.8,2.6,1.4,3.1,1.5
	c0.7,0.1,2.7,1.6,2.7,2c-0.1,0.3-0.2,0.3-1.1-0.3c-0.3-0.2-0.7-0.4-0.9-0.4c-0.7-0.1-2.4-0.6-2.5-0.7c-0.1-0.1-0.2,0-0.4,0.1
	c-0.1,0.1,0.3,0.6,1,1.1c1.1,0.9,1.1,0.9,0.4,1c-0.5,0.1-0.9,0-1.4-0.6c-0.4-0.4-0.7-0.9-0.7-1.1c0-0.4-1.5-1.3-1.9-1
	c-0.2,0.1-0.2,0.2-0.1,0.3c1,0.9,1.4,1.5,1.4,1.8c0,0.2,0.7,0.9,1.7,1.7c1.1,0.9,1.7,1.5,1.6,1.7c-0.2,0.5,0.6,0.6,1.2,0.2
	c0.6-0.4,1.1-0.1,0.8,0.3c-0.3,0.4,2.6,2.4,4.7,3.3c0.7,0.3,1.3,0.6,1.3,0.8c0,0.1,0.5,0.1,1,0c1.1-0.3,3.6,0.9,3,1.4
	c-0.2,0.2-0.9,0.1-1.5-0.2c-0.7-0.3-1.3-0.5-1.5-0.5c-0.6,0-0.7,0.4-0.3,0.6c0.5,0.2,0.3,0.6-0.4,0.7c-0.4,0.1-0.5,0-0.6-0.5
	c-0.1-0.5-0.2-0.6-0.7-0.4c-0.6,0.2-0.6,0.1-0.4-0.4c0.1-0.5,0.1-0.5-0.3-0.2c-0.6,0.4-0.6,0.6-0.1,1.1c0.5,0.5,0.2,0.8-0.4,0.4
	c-0.3-0.2-0.6-0.4-0.8-0.5c-0.2-0.1-0.5-0.2-0.7-0.4c-0.4-0.3-1.6,0.7-1.3,1c0.1,0.1,0.4,0,0.6-0.2c0.3-0.3,0.5-0.2,1.1,0.3
	c0.4,0.4,1.1,0.7,1.5,0.8c0.5,0.1,0.9,0.3,1.2,0.9c0.3,0.4,0.8,0.8,1,0.9c1.7,0.3,2,0.4,2,0.9c0,0.2,0.2,0.5,0.3,0.5
	c0.2,0,0.4,0.2,0.4,0.4c0,0.2,0.2,0.4,0.5,0.3c0.2-0.1,0.5,0.1,0.7,0.4c0.2,0.3,0.4,0.4,0.5,0.2c0.2-0.3-0.1-0.9-0.9-1.3
	c-1-0.6-1.2-1.1-0.8-2.2c0.2-0.6,0.4-1.1,0.4-1.2c0.2-0.2,0.9,0.2,0.9,0.5c0,0.2,0.1,0.3,0.3,0.2c0.2-0.1,0.5,0,0.7,0.1
	c0.3,0.2,0.5,0.2,0.6-0.1c0.1-0.2,0.4-0.4,0.7-0.5c0.3-0.1,0.6-0.3,0.8-0.5c0.2-0.2,0.7-0.4,1.2-0.4c0.8,0,1.3-0.6,0.7-0.7
	c-0.4-0.1,0.2-1.3,0.7-1.5c0.2-0.1,0.4-0.3,0.4-0.5c0-0.2,0.2,0,0.4,0.3c0.5,0.7,1.6,0.7,1.3,0c-0.2-0.4,0.3-1.2,0.6-1
	c0.1,0.1,0.2,0,0.1-0.3c0-0.2-0.3-0.5-0.6-0.6c-0.3-0.1-0.4-0.3-0.3-0.4c0.2-0.3,1-0.5,1-0.2c0,0.1,0.1,0.2,0.3,0.2
	c0.2,0,0.3-0.2,0.3-0.6c0-0.4,0-0.6,0.4-0.8c0.4-0.2,0.4-0.2,0.2-0.4c-0.2-0.1-0.2-0.4-0.2-0.6c0.1-0.2,0.3-0.3,0.4-0.2
	C197.8,163.9,198.2,163.2,198.1,162.4z M4.7,44.5c-0.2,0.1-0.4,0-0.4-0.1C4.3,44,5,43.8,5,44.1C5.1,44.3,4.9,44.4,4.7,44.5z
	 M9.2,46.2c-0.4-0.3-0.5-0.4-0.2-0.8C9.3,45,9.5,45,9.6,45.3c0.1,0.2,0.3,0.6,0.4,0.8C10.2,46.5,9.9,46.6,9.2,46.2z M12.9,47.8
	c-0.2,0.1-0.3-0.1-0.3-0.4c0-0.3,0.1-0.6,0.3-0.7C13.3,46.5,13.3,47.6,12.9,47.8z M13.4,37.8c-0.1,0.1-0.3,0.1-0.5,0
	c-0.4-0.3-0.2-0.7,0.3-0.8C13.5,37,13.6,37.5,13.4,37.8z M13.9,48.1c-0.3-0.2-0.2-0.9,0.1-0.9c0.2,0,0.3,0.1,0.4,0.3
	C14.4,47.8,14.1,48.3,13.9,48.1z M35.7,44.6c0-0.5,0.1-0.6,0.6-0.7c0.8-0.1,1.1,0,0.5,0.3c-0.4,0.2-0.4,0.3-0.3,0.6
	c0.2,0.4,0.2,0.4-0.3,0.4C35.8,45.2,35.7,45,35.7,44.6z M33.2,48.3c-0.2,0.1-0.4,0-0.6-0.1c-0.2-0.1-0.2-0.4-0.1-0.5
	c0.1-0.1,0.3-0.2,0.4-0.1c0.1,0.1,0.2,0.2,0.4,0.3C33.4,48.1,33.4,48.2,33.2,48.3z M31.8,44c-0.3-0.2-0.4-0.5-0.3-0.6
	c0.1-0.2,0.9,0.4,1,0.7C32.6,44.4,32.2,44.4,31.8,44z M31.5,39.6c0,0.2-0.1,0.3-0.3,0.4c-0.2,0.1-0.4,0-0.4-0.1
	C30.8,39.6,31.4,39.3,31.5,39.6z M30.9,41.2c0.3,0.2,0.6,0.3,0.8,0.3c0.2,0,0.5,0.1,0.9,0.3c0.5,0.3,0.5,0.4,0.1,0.7
	c-0.3,0.4-0.3,0.4,0,0.3c0.3-0.1,0.5,0,0.5,0.2c0,0.5-1.5,0.1-2.4-0.7C29.6,41.5,29.8,40.4,30.9,41.2z M29.7,40.3
	c0.2-0.1,0.3-0.1,0.3,0.1c0,0.2-0.1,0.3-0.2,0.4c-0.2,0.1-0.3,0.1-0.3-0.1C29.4,40.6,29.5,40.4,29.7,40.3z M28.3,44.2
	c0.5-0.1,1.1-0.1,1.4,0.1c0.3,0.2,0.7,0.4,0.9,0.6c0.3,0.2,0.5,0.4,0.5,0.6c0,0.2-0.2,0.2-0.5,0c-0.3-0.2-0.7-0.3-0.9-0.2
	c-0.2,0.1-0.2,0.2,0,0.4c0.2,0.2,0.2,0.4,0.1,0.5c-0.2,0.1-0.8-0.2-1.4-0.7l-1.1-0.9L28.3,44.2z M15.5,50.4c-0.2,0-0.4-0.2-0.4-0.3
	c-0.1-0.2,0.1-0.1,0.3,0C15.6,50.3,15.6,50.4,15.5,50.4z M22.3,50.8c-0.1,0.1-0.2,0.1-0.2,0c0-0.1-0.4-0.2-0.9-0.2
	c-0.7,0-0.8,0-0.7-0.5c0.1-0.4,0.2-0.5,0.5-0.4C21.6,49.7,22.5,50.5,22.3,50.8z M23.1,52.2c-0.3,0-0.5-0.1-0.5-0.2
	c0-0.3,0.6-0.4,0.7-0.1C23.6,52.3,23.5,52.3,23.1,52.2z M24.2,51.4c-0.1,0.1-0.3,0.1-0.5,0c-0.2-0.1-0.2-0.3-0.1-0.4
	c0.2-0.1,0.4-0.1,0.5,0C24.2,51.1,24.3,51.3,24.2,51.4z M25.6,52.3c-0.8-0.2-1-0.5-0.6-0.7c0.2-0.1,0.6-0.1,0.9,0.1
	C26.4,52.2,26.3,52.5,25.6,52.3z M30.4,55.8c-0.1,0.1-0.2,0.1-0.3,0c-0.1-0.1-0.1-0.2,0-0.4c0.1-0.1,0.2-0.1,0.3,0
	C30.5,55.6,30.5,55.8,30.4,55.8z M32,55.5c-0.4,0-0.5-0.1-0.6-0.5c0-0.6,0-0.6,0.6-0.5c0.4,0.1,0.7,0.2,0.8,0.2
	C33.1,55,32.6,55.5,32,55.5z M32.5,53.9c-0.5,0-1.1,0-1.4,0.1c-0.2,0.1-1-0.1-1.7-0.4c-1.3-0.6-1.3-0.6-1.2-1.5c0.1-0.5,0-1-0.1-1.1
	c-0.2-0.2-0.2-0.1-0.2,0.2c0.1,0.4,0,0.4-0.4,0.4c-0.3,0-0.4-0.2-0.3-0.6c0.1-0.4,0.1-0.5-0.3-0.5c-0.2,0.1-0.5,0-0.5-0.1
	c-0.1-0.1-0.4-0.3-0.8-0.4c-0.6-0.2-0.7-0.2-0.5,0.2c0.2,0.4,0.1,0.4-0.5,0.2c-0.4-0.1-0.9-0.2-1.1-0.2c-0.2,0-0.5-0.2-0.8-0.4
	c-0.3-0.3-0.9-0.6-1.3-0.6c-0.5-0.1-0.9-0.2-1-0.4c-0.2-0.5-0.7-0.1-0.5,0.5c0.2,0.8-0.3,0.7-1.6-0.2c-0.6-0.4-1.5-1-1.9-1.1
	c-0.4-0.2-0.7-0.4-0.7-0.6c-0.1-0.3,1.6,0,2.1,0.3c0.2,0.1,0.8,0.1,1.4-0.1c0.8-0.3,1.1-0.3,1.2,0.1c0.1,0.3,0.3,0.4,0.7,0.4
	c0.3-0.1,0.8,0.1,1.1,0.3c0.3,0.2,0.7,0.4,0.8,0.3c0.2-0.1,0.4,0,0.6,0.3c0.2,0.3,0.5,0.4,0.8,0.3c0.3-0.1,1.1,0.1,1.9,0.6
	c0.7,0.4,1.8,0.8,2.3,0.9c1,0.1,1.3,0.5,0.6,0.8c-0.3,0.1-0.4,0.2-0.3,0.3c0.4,0.3,0.5,0.3,0.8-0.2c0.2-0.3,0.5-0.4,1.2-0.2
	c0.6,0.2,0.9,0.4,0.8,0.5c-0.1,0.2,0.3,0.6,1,0.9C34,53.5,33.9,54,32.5,53.9z M35,49.6c-1.5-1-1.6-1.1-1.1-1.3
	c0.8-0.3,2.7,0.6,3.1,1.5C37.6,50.9,36.8,50.9,35,49.6z M37,47.2c-0.3-0.2-0.9-0.5-1.4-0.8c-0.8-0.4-0.9-0.5-0.6-0.8
	c0.2-0.3,0.5-0.3,1,0c0.4,0.2,1.1,0.5,1.5,0.6c0.4,0.2,0.9,0.5,0.9,0.6C38.6,47.3,37.6,47.6,37,47.2z M39.8,47.3
	c0.5-0.1,2.4,0.5,2.5,0.9c0.1,0.5-0.5,0.5-1.7-0.2C40,47.7,39.6,47.4,39.8,47.3z M41.3,51.8c-0.2,0.9-0.3,1-1,0.7
	c-1-0.4-1.6-1-1.4-1.3c0.1-0.1,0.3-0.2,0.4-0.1c0.1,0.1,0.5,0,0.9-0.1C41.1,50.8,41.4,51,41.3,51.8z M42.4,53.6
	c-0.1,0.1-0.3,0.1-0.5,0c-0.2-0.1-0.2-0.4-0.1-0.5c0.1-0.1,0.3-0.1,0.5,0C42.5,53.2,42.5,53.5,42.4,53.6z M45,55
	c-0.9,0-0.9,0-0.9-0.6c0-0.7,0.2-0.7,1.4-0.1C46.4,54.7,46.2,55,45,55z M59.7,63.9c-0.4-0.2-1.1-0.5-1.5-0.6
	c-0.4-0.1-1.5-0.7-2.4-1.3c-0.9-0.6-1.9-1.2-2.4-1.5c-0.4-0.2-1.7-1.1-2.9-1.9c-1.2-0.8-2.3-1.5-2.5-1.6c-0.2,0-0.2-0.2-0.1-0.3
	c0.2-0.2,1.6,0,1.9,0.3c0.2,0.1,0.5,0.1,0.8,0c0.5-0.2,1.3,0.2,1.2,0.7c0,0.2-0.2,0.3-0.3,0.2c-0.1-0.1-0.3,0-0.4,0.1
	c-0.1,0.1,0.1,0.3,0.6,0.4c0.4,0.1,1.1,0.4,1.6,0.7c2.4,1.5,3.1,1.7,3.5,1.6c0.4-0.2,1,0.4,0.7,0.8c-0.1,0.1,0,0.3,0.1,0.4
	c0.1,0.1,0.3,0.1,0.4,0c0.1-0.1,0.3-0.1,0.4,0.1c0.1,0.2,0.5,0.3,0.8,0.3c0.4-0.1,0.6,0,0.6,0.3c0,0.3,0.3,0.5,0.9,0.5
	c0.5,0,1,0.2,1.1,0.4C62.2,64.2,60.6,64.4,59.7,63.9z M50.4,67.5c-0.1,0.1-0.3,0.1-0.5,0c-0.2-0.1-0.2-0.3-0.1-0.4
	c0.2-0.1,0.4-0.1,0.5,0C50.5,67.1,50.5,67.3,50.4,67.5z M51.2,67.8c-0.2,0.1-0.4,0-0.4-0.1c0-0.3,0.7-0.6,0.7-0.3
	C51.6,67.6,51.5,67.7,51.2,67.8z M52.6,68.4c-0.1,0.1-0.3,0.2-0.4,0.1c-0.1-0.1-0.1-0.2-0.1-0.2c0.1-0.1,0.2-0.1,0.4-0.1
	C52.7,68.1,52.7,68.2,52.6,68.4z M54.7,69.9c-0.9,0-1.7-0.6-1.4-0.9c0.1-0.1,0.3-0.1,0.5,0c0.2,0.1,0.5,0.2,0.8,0
	c0.5-0.2,1.1,0,1,0.5C55.6,69.8,55.6,69.9,54.7,69.9z M75.2,72.4c0.2,0.2,0.3,0.4,0.2,0.5c-0.1,0.1-0.4,0-0.5-0.2
	C74.6,72.1,74.7,72,75.2,72.4z M72.2,70.8c0.2,0,0.7,0.1,1.1,0.3c0.7,0.3,0.8,0.5,0.6,0.8c-0.2,0.2-0.6,0.2-1,0.1
	C72.1,71.6,71.7,71,72.2,70.8z M69.4,69.2c0.1-0.1,0.3-0.2,0.5,0c0.2,0.1,0.5,0.2,0.6,0.2c0.4-0.1,0.9,0.3,0.7,0.7
	c-0.3,0.6-0.4,0.6-1.2,0C69.5,69.7,69.3,69.3,69.4,69.2z M77,77.1c-0.4-0.2-1-0.5-1.4-0.5c-0.4,0-0.8-0.2-0.9-0.3
	c-0.1-0.1-0.4-0.2-0.7-0.2c-0.4,0-0.8-0.3-1.4-0.9c-0.4-0.5-0.9-0.9-1-0.8c-0.1,0.1-0.5,0-0.8-0.3c-0.3-0.2-0.7-0.4-0.9-0.3
	c-0.2,0-0.4-0.2-0.5-0.5l-0.2-0.6l0.6,0c1.1,0,3.4,1.1,3.5,1.6c0,0.3,0.1,0.4,0.4,0.4c0.2,0,0.7,0.2,1,0.5c0.3,0.3,1,0.6,1.4,0.7
	c0.9,0.2,2.1,0.9,2,1.3C78.3,77.6,77.7,77.6,77,77.1z M86.6,82.6c-0.1,0.1-0.5,0.2-0.9,0.1c-1.5-0.3-5.7-3.5-4.9-3.8
	c0.2-0.1,2.5,1.5,4.2,2.9c0.4,0.3,0.8,0.5,1,0.4C86.4,81.9,86.9,82.3,86.6,82.6z M88.7,84.5c-0.3-0.1-0.5-0.4-0.6-0.7
	c0-0.4-0.1-0.4-0.3-0.1c-0.3,0.4-0.6,0.4-0.6-0.1c0-0.5,0.9-0.7,1.2-0.2c0.2,0.3,0.4,0.3,0.7,0.1c0.3-0.3,0.4-0.2,0.4,0.2
	C89.6,84.5,89.4,84.7,88.7,84.5z M100.2,85.9c0.2,0.1,0.2,0.3,0.1,0.3c-0.1,0-0.3-0.1-0.3-0.2C99.9,85.7,100,85.7,100.2,85.9z
	 M97,88c0.2-0.2,0.6-0.1,1,0.2c0.9,0.5,0.4,0.8-0.7,0.4C96.8,88.3,96.7,88.2,97,88z M96.5,85.9c0.2,0,0.2,0.2,0.1,0.4
	c-0.1,0.2-0.3,0.3-0.4,0.2C95.9,86.4,96.1,85.9,96.5,85.9z M93.8,85.7c-0.4,0.1-0.7,0-0.9-0.3c-0.5-0.8-0.1-1,0.7-0.4
	C94.3,85.5,94.3,85.6,93.8,85.7z M95.1,90.4c-0.1,0.1-0.4,0.1-0.7,0c-0.8-0.1-1.2-0.9-0.4-0.8C94.5,89.7,95.3,90.2,95.1,90.4z
	 M100.1,92.5c-0.2-0.1-0.1-0.3,0.1-0.5c0.5-0.4-0.1-0.8-1-0.6c-0.5,0.1-0.8,0-0.8-0.2c0-0.2-0.2-0.4-0.4-0.3c-0.5,0.1-2-0.6-2.1-1.1
	c0-0.2-0.3-0.5-0.7-0.7c-0.6-0.3-0.6-0.9-0.1-1.2c0.1-0.1,0.4,0.1,0.6,0.4c0.2,0.3,0.9,0.9,1.6,1.4c0.7,0.5,1.3,1,1.3,1.1
	c0,0.2,0.4,0.3,0.9,0.2c1.1-0.2,1.3,0,1.3,0.8C100.8,92.4,100.5,92.8,100.1,92.5z M101.1,88.5c-0.2,0-0.5,0-0.6,0
	c-0.1-0.1-0.1-0.2,0.1-0.3c0.1-0.1,0.4-0.1,0.6,0C101.4,88.4,101.4,88.4,101.1,88.5z M107.8,91c0-0.2,0.2-0.3,0.3-0.2
	c0.1,0.1,0.1,0.2,0,0.4c-0.1,0.1-0.2,0.2-0.3,0.2C107.7,91.4,107.7,91.2,107.8,91z M107.5,97.4c-0.4-0.2-0.9-0.3-1-0.3
	c-0.5,0.1-1.5-0.4-1.3-0.6c0.4-0.6,3.4,0,3.5,0.6C108.8,97.6,108.3,97.7,107.5,97.4z M109.2,100.9c-0.4-0.3-0.4-1,0-1.1
	c0.1,0,0.4,0.2,0.6,0.5C110.2,101,109.8,101.3,109.2,100.9z M110.1,99.2c-0.1,0.1-0.3,0.2-0.4,0c-0.2-0.1-0.1-0.3,0-0.4
	c0.2-0.1,0.3-0.1,0.4,0C110.2,98.9,110.2,99,110.1,99.2z M111.1,99.7c-0.3,0.1-0.4,0-0.4-0.3c0-0.4,0.1-0.4,0.4-0.1
	C111.4,99.5,111.4,99.5,111.1,99.7z M111.6,102.4c-0.1,0.1-0.2,0.2-0.3,0.2c0,0,0-0.2,0-0.4c0-0.2,0.2-0.3,0.3-0.2
	C111.7,102.1,111.7,102.3,111.6,102.4z M115.9,105.4c-0.1-0.1-0.2-0.3-0.1-0.4c0.2-0.3,0.8-0.2,0.8,0.1
	C116.6,105.4,116.2,105.6,115.9,105.4z M118.4,107.4c-0.2,0.1-0.5,0-0.7-0.1c-0.6-0.3-0.3-0.8,0.4-0.6
	C118.7,106.8,118.8,107.2,118.4,107.4z M120.1,103.4c-0.1,0-0.3-0.1-0.3-0.3c-0.1-0.2-0.1-0.4,0-0.4c0.1,0,0.3,0.1,0.3,0.3
	C120.2,103.2,120.2,103.4,120.1,103.4z M136.1,121.6c-0.4,0.5-0.8,0.9-0.9,0.9c-0.1,0-0.2-0.1-0.2-0.3c0-0.2,0.1-0.4,0.4-0.5
	c0.3-0.1,0.3-0.3,0.1-0.6c-0.2-0.2-0.5-0.4-0.8-0.2c-0.5,0.2-1.1-0.2-1-0.6c0-0.2-0.1-0.4-0.3-0.4c-0.2,0-0.2-0.2,0-0.5
	c0.2-0.3,0.4-0.3,0.8,0.1c0.3,0.3,0.9,0.6,1.4,0.7C136.9,120.6,137,120.6,136.1,121.6z M139.2,123.8c-0.2,0-0.3-0.2-0.3-0.3
	c0-0.4,0.4-0.4,0.5,0C139.5,123.7,139.5,123.8,139.2,123.8z M139.9,122.4c-0.7-0.5-1.4-0.8-2-1c-0.5-0.2-0.5-0.3-0.3-0.5
	c0.4-0.3,1.2-0.1,2.3,0.7C140.6,122.2,140.6,122.9,139.9,122.4z M157.7,135.3c-0.1,0.1-0.3,0.2-0.4,0c-0.2-0.1-0.1-0.3,0-0.4
	c0.2-0.1,0.4-0.1,0.4,0C157.8,135,157.8,135.1,157.7,135.3z M151.2,130.5c-0.1,0.1-0.5,0-0.8-0.3c-0.5-0.5-0.5-0.5,0-0.4
	C151.1,130,151.4,130.2,151.2,130.5z M153.4,135.1c-0.1,0.1-0.3,0-0.4-0.2c-0.1-0.3,0.1-0.9,0.3-0.7
	C153.5,134.4,153.6,135,153.4,135.1z M157.7,139.2c-0.2,0-0.5-0.1-0.7-0.2c-0.2,0-0.6-0.2-0.8-0.3c-0.3-0.1-0.7-0.2-0.9-0.2
	c-0.4,0-1.9-1.3-1.9-1.6c0-0.1,0.2-0.3,0.4-0.5c0.3-0.2,0.6-0.1,1.3,0.4c0.5,0.4,1.1,0.7,1.3,0.7c0.4-0.1,0.9,0.4,1.4,1.2
	C157.9,139.1,157.9,139.2,157.7,139.2z M160.4,141.8c-0.6,0.1-0.5-0.9,0.1-1.1c0.3-0.1,0.4-0.1,0.2,0.2c-0.1,0.2-0.1,0.3,0.1,0.4
	C161.3,141.2,161,141.6,160.4,141.8z M162.2,143c-0.2,0-0.3-0.2-0.3-0.4c0-0.3,0.1-0.4,0.4-0.5c0.2,0,0.5,0,0.5,0.1
	C163.1,142.3,162.5,143,162.2,143z M164.7,151.5c-0.5-0.4-0.8-0.8-0.7-0.9c0.2-0.3,1.1,0.1,1.5,0.7
	C166.1,152,165.5,152.2,164.7,151.5z M175.9,162.7c-1.3-0.5-1.9-1-1.7-1.3c0.2-0.3,0.5-0.2,0.9,0.3c0.1,0.2,0.4,0.1,0.5-0.1
	c0.3-0.4,0.5-0.3,1.2,0.5C177.4,163,177.1,163.2,175.9,162.7z M178,142.4c0,0.2-0.1,0.4-0.2,0.5c-0.2,0.1-0.3,0-0.3-0.2
	C177.6,142.2,178,142,178,142.4z M176,141.4c0.2-0.1,0.3-0.1,0.4,0c0.1,0.1,0.1,0.2,0,0.4c-0.1,0.1-0.3,0.2-0.4,0
	C175.8,141.7,175.9,141.5,176,141.4z M174.8,141.3c0.1-0.2,0.2-0.2,0.3-0.1c0.2,0.1,0.2,0.3,0.1,0.5c-0.1,0.1-0.2,0.2-0.3,0.1
	C174.8,141.7,174.8,141.5,174.8,141.3z M174.4,140.9c-0.1,0.1-0.4,0.1-0.7,0c-0.6-0.3-0.8-0.7-0.3-0.8
	C173.9,140.1,174.6,140.6,174.4,140.9z M173.6,138.2c0.5,0.2,0.7,0.4,0.5,0.6c-0.1,0.1-0.5,0-0.9-0.3
	C172.4,137.8,172.6,137.7,173.6,138.2z M177.9,158c-0.2,0-0.4,0.1-0.5,0.3c-0.3,0.4-0.4,0.4-3.5-1.2c-2.4-1.2-2.6-1.4-2.3-2.6
	c0.1-0.4,0.3-0.6,0.7-0.6c0.3,0,0.8-0.1,1-0.2c0.5-0.1,0.7,0.4,0.2,0.6c-0.2,0.1-0.2,0.2,0.1,0.3c0.2,0,1,0.4,1.6,0.8
	c1.1,0.7,1.1,0.7,0.6,1c-0.4,0.2-0.7,0.1-1-0.3c-0.3-0.4-0.7-0.5-1.4-0.5l-1,0l0.7,0.3c0.4,0.2,1,0.5,1.5,0.7
	c0.4,0.2,0.9,0.3,1.2,0.1c0.2-0.1,0.5-0.1,0.7,0c0.2,0.1,0.2,0.3,0.1,0.4c-0.2,0.1,0.1,0.2,0.5,0.2c0.4,0,0.8,0.2,0.8,0.4
	C178.2,157.9,178.1,158,177.9,158z M180.3,165.9c-0.2,0.1-0.4,0.1-0.5,0c-0.1-0.1-0.2-0.3-0.1-0.5c0-0.2,0.3-0.2,0.5,0
	C180.4,165.6,180.5,165.8,180.3,165.9z M180.5,162.8c-0.4-0.2-1-0.4-1.2-0.4c-0.2,0-0.4-0.2-0.3-0.4c0.1-0.4,0.8-0.4,1.4,0.1
	C181.2,162.9,181.2,163.2,180.5,162.8z M182.5,166.4c-0.1,0.1-0.3,0.2-0.4,0c-0.2-0.1-0.1-0.3,0-0.4c0.2-0.1,0.4-0.1,0.4,0
	C182.6,166.1,182.6,166.2,182.5,166.4z M182.8,162c-0.1-0.2-0.8-0.6-1.6-0.8c-1.5-0.5-2.5-1.2-2.4-1.7c0.2-0.7,0.5-0.6,3,1
	c0.8,0.5,1.5,1.1,1.5,1.2C183.6,162.3,183.1,162.4,182.8,162z M184,149.3c-0.2,0.1-0.5,0-0.8-0.3c-0.4-0.4-0.4-0.4,0-0.4
	C183.8,148.7,184.3,149.1,184,149.3z M183.9,170.2c0.4-0.3,0.9-0.2,0.7,0.1c-0.1,0.1-0.4,0.2-0.6,0.2
	C183.8,170.5,183.7,170.4,183.9,170.2z M185.2,173c-0.1,0.1-0.3,0.1-0.5,0.1c-0.7-0.2-1-1.2-0.5-1.8c0.5-0.6,1.2-0.6,0.7,0
	c-0.2,0.3-0.2,0.5,0.2,0.6C185.5,172.1,185.6,172.4,185.2,173z M190.9,165.8c0.2-0.2,0.5-0.2,0.7-0.1c0.2,0.1,0.2,0.2,0,0.4
	c-0.2,0.2-0.5,0.2-0.7,0.1C190.7,166.2,190.7,166,190.9,165.8z M188.6,171.1c-0.3-0.1-0.3-0.3-0.2-0.6c0.2-0.2,0.4-0.2,0.7,0
	C189.5,171,189.2,171.4,188.6,171.1z M191,169.8c-0.4-0.3-1.1-0.2-1.3,0.2c-0.1,0.2-0.3,0.2-0.4,0.1c-0.1-0.2,0-0.4,0.2-0.6
	c0.2-0.2,0.2-0.5,0.1-0.8c-0.1-0.2-0.1-0.5,0.1-0.6c0.2-0.1,0.3,0,0.4,0.3c0.1,0.3,0.3,0.4,0.8,0.4c0.4,0,0.6-0.1,0.5-0.2
	c-0.1-0.1-0.1-0.5,0-0.8c0.2-0.8,0.6-0.6,0.7,0.4C192,168.9,191.3,170,191,169.8z M194.6,159.1c-0.2,0.2-0.2,0.7-0.2,1.1
	c0.1,0.4,0,0.8-0.1,0.7c-0.1,0-0.2-0.8-0.2-1.6c0-0.9,0.2-1.6,0.3-1.7c0.1,0,0.2,0.1,0.1,0.3c-0.1,0.2-0.1,0.5,0.1,0.6
	C194.7,158.6,194.7,158.9,194.6,159.1z"/>
</svg>
