<?xml version="1.0" encoding="utf-8"?>
<!-- Generator: Adobe Illustrator 23.0.0, SVG Export Plug-In . SVG Version: 6.00 Build 0)  -->
<svg version="1.1" id="Calque_1" xmlns="http://www.w3.org/2000/svg" xmlns:xlink="http://www.w3.org/1999/xlink" x="0px" y="0px"
	 viewBox="0 0 200 200" style="enable-background:new 0 0 200 200;" xml:space="preserve">

<clipPath id="decoupage" viewBox="0 0 500 500" >
	<path class="st0" d="M196.2,150.1c-0.4-0.3-0.6,0-0.5,0.6c0.1,0.4,0,0.4-0.3,0.2c-0.3-0.2-0.5-0.1-0.9,0.4c-0.3,0.4-0.5,0.7-0.6,0.6
		c-0.1,0-0.4-0.8-0.6-1.7c-0.3-0.9-0.6-1.7-0.8-1.8c-0.4-0.3-0.7-1.8-0.5-2.1c0.1-0.1,0.1-0.3-0.1-0.4c-0.1-0.1-0.4,0.1-0.6,0.3
		c-0.3,0.5-0.4,0.4-4-2.2c-4.4-3.2-3.5-2.6-7.6-5.3c-1.9-1.3-3.9-2.7-4.4-3.2c-0.5-0.5-1-0.8-1.2-0.8c-0.1,0.1-0.7-0.3-1.2-0.7
		c-0.5-0.4-1.3-1.1-1.7-1.3c-0.5-0.4-0.7-0.7-0.6-1c0.1-0.4,0.1-0.4-0.1,0c-0.8,1.2-0.8,1.2-2.4,0.4c-0.8-0.4-1.5-1-1.7-1.3
		c-0.2-0.3-0.1-0.4,0.1-0.2c0.7,0.5,0.3-0.4-0.5-1c-1.2-0.9-1.8-1.1-1.9-0.5c-0.1,0.3-0.4,0.2-1.5-0.3c-2.1-1.1-3.2-2.1-2.9-2.6
		c0.4-0.5,0.1-0.7-0.7-0.4c-0.6,0.2-1.1,0-3.1-1.2c-2.4-1.4-3-2-2.4-2.2c0.2-0.1,0.2-0.3-0.1-0.5c-0.3-0.2-0.7-0.1-0.9,0.1
		c-0.5,0.4-1.4,0-1.4-0.8c0-0.4-0.2-0.6-0.8-0.7c-0.5-0.1-0.8-0.3-0.7-0.5c0.1-0.2,0-0.4-0.1-0.4c-0.1-0.1-0.3,0.1-0.3,0.3
		c-0.1,0.3-0.5,0.3-1.2,0c-1.4-0.4-4.6-2.6-4.3-3c0.1-0.1,0.3-0.2,0.4-0.1c0.1,0.1,0.3,0.1,0.4-0.1c0.1-0.1,0-0.3-0.2-0.3
		c-0.2,0-0.7-0.3-1-0.6c0,0-0.1-0.1-0.1-0.1l-0.8,0c-0.2,0.2-0.6,0.2-0.9,0c-0.2-0.1-0.4-0.4-0.4-0.6c-0.1-0.3-0.4-0.8-0.7-1
		c-0.3-0.2-0.4-0.4-0.2-0.5c0.2-0.1,0.2-0.2,0.1-0.3c-0.1-0.1-0.3-0.1-0.4,0.1c-0.1,0.2-0.4,0-0.8-0.3c-0.4-0.3-0.8-0.6-0.9-0.5
		c-0.1,0.1-0.7-0.2-1.3-0.6c-0.6-0.4-1.2-0.7-1.3-0.6c-0.4,0.2-1.7-0.5-1.9-1c-0.1-0.2-2.3-1.9-5.1-3.9c-4.1-2.9-5-3.6-4.9-4
		c0-0.4-0.1-0.5-0.7-0.4c-0.5,0.1-0.8-0.1-0.9-0.4c-0.3-0.7-1.2-1.2-1.5-1c-0.2,0.2-0.3,0.1-0.5-0.4c-0.2-0.5-0.2-0.6-0.7-0.4
		c-0.3,0.2-0.8,0-1.4-0.4c-0.7-0.5-0.8-0.6-0.3-0.6c0.3,0,0.6-0.1,0.6-0.3c0-0.4-1.9-1.4-2.8-1.5c-0.9-0.1-1.3-0.3-3.6-1.7
		c-1.3-0.8-1.9-1.2-1.7-1.4c0.1-0.1,0.3-0.1,0.5,0c0.2,0.1,0.4,0.1,0.5,0c0.2-0.3-0.7-0.9-1-0.6c-0.2,0.1-0.8-0.1-1.6-0.7
		c-1.1-0.8-1.3-0.9-1.4-0.5c-0.1,0.5-0.6,0.3-0.6-0.3c0-0.4-2.3-1.8-3.8-2.3c-0.6-0.2-0.6-0.3-0.2-0.5c0.5-0.4,0.1-1.1-0.6-1
		c-0.3,0.1-0.4,0.1-0.2,0.3c0.2,0.1,0.2,0.3,0.1,0.4c-0.1,0.1-1-0.3-2-0.9c-1-0.6-1.8-1.2-1.7-1.3c0.1-0.1,0.2-0.1,0.4,0
		c0.2,0.1,0.2,0,0.2-0.4c-0.1-0.6-0.2-0.7-1.1-0.8c-0.6-0.1-1.1,0-1.2,0.2c-0.1,0.2-0.2,0.2-0.3-0.2c-0.1-0.3-0.2-0.6-0.3-0.7
		c-0.1-0.1-0.2,0.1-0.1,0.3c0.2,0.4,0.1,0.4-0.3,0.1c-0.3-0.2-0.7-0.7-1-1.1c-0.3-0.5-0.6-0.7-0.9-0.6c-0.5,0.1-1.4-0.5-1-0.7
		c0.5-0.2-0.1-0.5-0.8-0.4c-0.4,0.1-0.7,0-0.9-0.4c-0.2-0.3-0.4-0.5-0.6-0.5c-0.2,0-1.6-0.7-3.2-1.7c-1.5-1-3.2-1.9-3.7-2.1
		c-0.6-0.3-0.9-0.6-0.9-0.8c0-0.3-0.2-0.5-1-0.8c-0.7-0.2-1-0.4-0.9-0.7c0.1-0.2-0.4-0.4-1.1-0.5c-0.9-0.2-1.2-0.3-1.3-0.7
		c-0.1-0.3-0.4-0.6-0.7-0.6c-0.3-0.1-0.9-0.3-1.4-0.6c-0.5-0.3-1.9-1.1-3.2-1.9c-1.3-0.8-3.2-2-4.2-2.7c-9.2-6.5-10.2-7.1-12.9-8.4
		c-0.9-0.4-1.5-0.8-1.6-1.1c-0.1-0.3-0.6-0.6-1.3-0.9c-1.5-0.6-4.5-2.5-4.4-2.7c0.1-0.1-3.1-2.4-7.1-5c-6.7-4.5-12.1-8.2-15.7-10.8
		c-0.8-0.6-2.1-1.3-2.9-1.7c-1.1-0.5-1.5-0.7-1.7-1.2c-0.4-0.8-2.5-1.9-2.6-1.3c-0.1,0.3-0.3,0.3-0.6,0.1c-0.3-0.2-0.6-0.2-0.7-0.1
		c-0.3,0.4-0.7-0.1-0.5-0.7c0.4-1-0.2-0.6-1.1,0.7c-0.9,1.4-1.6,1.7-2.3,0.9c-0.2-0.2-0.6-0.2-1.3,0.2c-0.8,0.5-0.9,0.6-0.5,0.7
		c0.2,0.1,0.4,0.2,0.3,0.3c-0.1,0.1,0,0.5,0.3,0.7c0.7,0.9,0.9,1.9,0.4,2c-0.4,0.1-0.6-0.1-0.9-0.7c-0.3-0.6-0.4-0.7-0.8-0.6
		c-0.3,0.1-0.4,0.4-0.4,0.8c0.1,0.7-0.6,1.3-1.1,1c-0.6-0.4-1.5,1-1.2,1.9C8,43,8,43.1,7.6,43c-0.6-0.2-1.2,0.7-1.1,1.6
		c0.1,0.7,0.1,0.7-0.3,0.4c-0.2-0.1-0.5-0.1-0.6,0.1c-0.1,0.2-0.1,0.4,0,0.5c0.1,0.1,0.2,0.3,0.1,0.4c-0.1,0.1-0.3,0.1-0.5,0
		c-0.3-0.2-0.4-0.1-0.3,0.2c0,0.3-0.1,0.5-0.4,0.6c-0.5,0.1-0.6,1.1-0.2,1.4c0.5,0.3,0.4,1.3-0.1,2C3.8,50.6,3.7,51,4,51.3
		c0.2,0.2,0.3,0.8,0.2,1.2c-0.1,0.6,0,0.8,0.5,1c0.4,0.1,1,0.4,1.4,0.7c0.4,0.3,0.9,0.5,1.2,0.5c0.3,0,0.5,0.2,0.4,0.4
		c-0.1,0.2,0.2,0.5,0.5,0.7c0.3,0.2,0.5,0.5,0.4,0.6c-0.1,0.1,0.2,0.4,0.6,0.7c0.9,0.7,2.9,2.4,3.2,2.9c0.5,0.7,2.9,2.4,3,2.2
		c0.2-0.2,1.3,0.7,1.8,1.5c0.5,0.7,1.6,1,1.8,0.5c0.1-0.4,0.2-0.4,0.6,0.1c0.8,1.1,5.6,3.8,6.9,3.9c0.2,0,0.4,0.1,0.6,0.1
		c0.2,0.1,0.4,0.2,0.6,0.2c0.2,0.1,0.5,0.4,0.7,0.7c0.3,0.4,0.7,0.6,1.2,0.7c0.5,0.1,0.8,0.2,0.9,0.5c0.1,0.2,0.7,0.8,1.5,1.3
		c0.7,0.5,1.4,1,1.5,1.2c0.2,0.5,2.2,2.4,2.2,2c0-0.2,0.2-0.3,0.6-0.3c0.5,0,0.7,0.1,0.8,0.6c0.1,0.4,0.3,0.6,0.6,0.6
		c0.2,0,0.9,0.3,1.4,0.6c0.5,0.3,1.1,0.6,1.3,0.5c0.3-0.1,0.5,0.1,0.8,0.6c0.3,0.5,0.5,0.6,0.9,0.6c0.3,0,0.9,0.2,1.5,0.6
		c0.6,0.4,1.1,0.6,1.2,0.5c0.1-0.1,1.1,0.4,2.5,1.5c1.3,1,2.7,1.9,3.1,2c0.4,0.1,1.8,0.9,3.2,1.8c1.3,0.9,2.6,1.6,2.9,1.7
		c0.3,0.1,0.7,0.4,0.9,0.8c0.3,0.4,0.6,0.6,0.7,0.5c0.3-0.1,1.4,0.7,1.7,1.3c0.1,0.2,0.5,0.4,1,0.5c0.6,0.1,0.8,0.2,0.8,0.5
		c0,0.3,0.3,0.5,1,0.8c0.6,0.2,1.4,0.8,1.9,1.3c0.6,0.6,1.2,1,1.7,1.1c0.5,0.1,0.8,0.3,1,0.7c0.4,0.8,0.5,0.8,0.9,0.3
		c0.3-0.5,0.5-0.4,1.4,0.9c0.1,0.2,0.3,0.1,0.5-0.1c0.3-0.4,0.7-0.2,0.6,0.2c-0.1,0.3,0.4,0.6,1.7,1.2c1,0.4,2,1.1,2.3,1.4
		c0.5,0.6,1,1,2.3,1.8c0.3,0.2,0.5,0.2,0.7-0.3c0.2-0.6,0.8-0.4,1,0.4c0.1,0.4,0.8,0.7,3.3,1.1c0.4,0.1,0.8,0.4,1.1,0.8
		c0.7,1,2.3,2.1,3.5,2.5c0.6,0.2,1.5,0.5,2.2,0.8c1,0.4,1.3,0.3,1.5-0.1c0.7-1.2,1.1-1.6,1.5-1.3c0.2,0.1,0.7,0.2,0.9,0.1
		c0.4-0.1,0.9,0.1,1.8,0.7c0.7,0.5,1.3,0.8,1.4,0.6c0.2-0.3,2,1,2,1.4c0,0.2,0.4,0.3,1,0.3c0.5,0,1.4,0.2,2,0.5
		c0.5,0.3,1.2,0.4,1.4,0.3c0.6-0.3,1.4,0.3,1.3,0.9c-0.2,0.7-1,1-1.7,0.5c-0.7-0.4-1.3-0.5-1.5-0.3c-0.1,0.2,1,1,1.3,0.9
		c0.2,0,0.5,0.2,0.8,0.5c0.3,0.4,0.5,0.4,0.5,0.2c0-0.4,1.3-0.3,2.1,0.3c0.3,0.2,0.3,0.5,0.1,0.7c-0.3,0.3-0.1,0.6,1.7,1.9
		c1.6,1.2,4,2.4,5.6,3.1c0.5,0.2,1,0.3,1.3,0.4c0.9,0.1,1.7,0.6,3.1,2.1c0.8,0.8,1.1,1,1.4,0.8c0.3-0.1,1.1,0.3,3,1.6
		c1.4,1,2.7,1.7,2.8,1.7c0.1,0,0.7,0.2,1.2,0.5c1.7,1,1.9,1.2,1.5,1.5c-0.5,0.4,0.3,1.3,1.5,1.6c0.5,0.1,1,0.4,1.1,0.6
		c0.1,0.2,0.4,0.2,0.6,0.1c0.2-0.2,0.9,0.1,1.9,0.6c0.9,0.5,1.8,0.9,2,0.8c0.4,0,1.3,0.7,1.4,1.1c0.1,0.4-1.4,0.2-1.8-0.2
		c-0.5-0.5-1.6-0.9-1.7-0.7c-0.2,0.3,2.7,1.9,3.1,1.7c0.2-0.1,0.9,0.3,1.7,0.8c0.7,0.5,1.5,0.9,1.8,0.8c0.3,0,0.7,0,0.9,0.2
		c0.2,0.2,0.7,0.2,1,0.1c0.5-0.1,1,0.1,2.3,1.1c1.2,0.9,1.6,1.3,1.4,1.6c-0.1,0.2-0.5,0.2-0.8-0.1c-0.3-0.2-0.7-0.3-0.8-0.2
		c-0.1,0.1-0.4,0-0.7-0.2c-0.3-0.2-0.7-0.3-0.9-0.3c-0.3,0.1,0.2,0.5,2.2,1.9c0.3,0.2,1.6,1.1,3.1,2.1c1.5,1,2.8,1.8,3.1,1.8
		c0.3,0,0.6,0.1,0.8,0.5c0.2,0.4,0.5,0.5,0.9,0.5c0.5,0,0.8,0.2,0.9,0.5c0.2,0.4,0.5,0.5,1.2,0.5c1.1-0.1,1.6,0.2,1.7,0.9
		c0.1,0.4,1,1.1,3.4,2.6c1.8,1.2,3.6,2.4,4,2.7c0.4,0.3,1,0.7,1.4,1c4.1,2.8,10.8,7.8,11,8.2c0.2,0.5,1.7,1,2.1,0.7
		c0.5-0.4,1.4,0.4,1.2,1c-0.2,0.5,0.3,1.2,0.6,0.8c0.1-0.1,0.4,0,0.7,0.2c0.3,0.2,0.5,0.5,0.5,0.6c-0.1,0.1,0.4,0.7,1.1,1.3
		c0.7,0.6,1.6,1.5,2.1,2.1c1,1.2,1.9,1.2,1.5,0.1c-0.2-0.6-0.2-0.6,0.3-0.3c0.3,0.2,0.6,0.2,0.8,0c0.3-0.5,0.8-0.1,0.8,0.7
		c0,0.3,0.2,0.6,0.3,0.6c0.2,0,0.3-0.4,0.2-0.7c-0.1-1,0.1-1.3,0.9-1c1.1,0.4,1.4,0.8,1.2,1.3c-0.2,0.7,0.1,1.1,0.5,0.6
		c0.1-0.2,0.6-0.3,1.1-0.3c1.1,0,1.7-0.7,1.1-1.5c-0.2-0.3-0.4-0.8-0.4-1c0-0.2-0.3-0.6-0.7-0.8c-0.5-0.3-0.6-0.6-0.4-1.1
		c0.2-0.5,0.1-0.6-0.3-0.5c-0.3,0.1-0.8-0.1-1.3-0.4c-0.4-0.3-1.2-0.6-1.8-0.6c-1-0.1-1-0.1-1-0.9c0-0.4-0.3-1.1-0.8-1.6
		c-1-1-1.2-1.9-0.2-1.6c0.4,0.1,0.6,0.3,0.5,0.5c-0.2,0.7,0.4,0.7,0.7,0c0.3-0.8,1.1-1.2,1.6-0.8c0.2,0.1,0.2,0.4,0,0.7
		c-0.3,0.5,0,2.1,0.4,2.4c0.4,0.3,0.5-0.2,0.3-1.7c-0.2-1.7-0.2-1.8,0.7-1.9c0.5-0.1,0.8,0.1,1.1,0.6c0.2,0.3,0.8,0.9,1.2,1.2
		c0.4,0.3,0.7,0.6,0.6,0.7c-0.2,0.4,0.4,1,1,1c0.4,0,0.5,0,0.5,0.4c0,0.4,0.1,0.5,0.6,0.4c0.7-0.1,1.2-0.7,1.1-1.3
		c0-0.2,0.2-1,0.5-1.6c0.3-0.7,0.7-1.8,0.8-2.6c0.1-0.7,0.3-1.6,0.5-2C196.4,150.7,196.4,150.3,196.2,150.1z M74.7,80.9
		c-0.3,0-0.9,0.2-1.3,0.6c-0.4,0.4-0.8,0.5-1.1,0.3c-0.7-0.5-0.7-1.2-0.1-1.4c0.3-0.1,0.4-0.2,0.1-0.4c-0.2-0.1-0.4-0.2-0.5-0.1
		c-0.4,0.6-5.4-1.4-5.3-2.1c0-0.2-0.5-0.6-1.1-1c-0.6-0.4-1.2-0.8-1.3-0.9c-0.2-0.5,0.5-0.7,1.4-0.5c1.3,0.3,4.5,1.7,4.7,2
		c0.1,0.2,0.2,0.1,0.4-0.1c0.3-0.4,1.4,0.4,1.8,1.3c0.2,0.6,0.5,0.7,1.3,1C75.4,80,76.3,81.1,74.7,80.9z M82.7,85.8
		c-0.2,0.2-0.8,0.2-1.2,0c-0.6-0.2-0.9-0.2-1.1,0.1c-0.5,0.7-0.9,0.5-1.6-0.9c-0.4-0.7-0.9-1.4-1.1-1.4c-0.3-0.1-0.3-0.2,0-0.4
		c0.6-0.4,2.7-0.2,3.3,0.4c0.7,0.7,1.4,0.9,1.2,0.3c-0.3-0.7,0.5-0.8,0.8-0.1c0.2,0.3,0.6,0.8,1,1c1.1,0.7,1.3,0.9,1,1.1
		c-0.2,0.1-0.6,0.1-1-0.1C83.4,85.6,82.9,85.6,82.7,85.8z M84.1,86.9c-0.2-0.5,0.2-0.6,0.9-0.4c1.1,0.4,1.2,1,0.1,0.8
		C84.6,87.2,84.2,87,84.1,86.9z M87.3,92.4c-0.6,0.1-2-0.8-2-1.3c0-0.5,0.1-0.5,1.5,0.2C88,92,88.1,92.3,87.3,92.4z M92,93.4
		c-0.1-0.3,0.9-0.2,1.4,0.1c0.7,0.4,0.2,0.7-0.6,0.4C92.3,93.7,92,93.5,92,93.4z M94.1,102.4c-1.3-0.4-1.7-0.7-1.5-0.9
		c0.2-0.3,1-0.1,2,0.5C95.8,102.6,95.5,102.9,94.1,102.4z M107.7,101.5c0.7,0.2,1.8,0,1.8-0.3c0-0.3,0.6,0,0.7,0.4
		c0.1,0.5-0.2,0.6-1,0.8c-0.5,0.1-1-0.1-1.3-0.5C107.5,101.6,107.5,101.4,107.7,101.5z M104.9,97.5c0.4,0,0.7,0.5,0.5,0.9
		c-0.1,0.1-0.4,0.1-0.6-0.1C104.2,97.9,104.3,97.5,104.9,97.5z M101.3,95.7c0.4-0.1,2.1,0.9,2,1.1c-0.1,0.1-0.6,0-1.1-0.3
		C101.2,96,100.9,95.8,101.3,95.7z M97.6,86c0.4,0.3,0.4,0.5-0.1,0.4c-0.2,0-0.3-0.2-0.3-0.4C97.2,85.9,97.4,85.8,97.6,86z M96,93.9
		c0.2-0.1,0.6,0.1,1,0.3c0.4,0.3,0.6,0.6,0.5,0.7c-0.1,0.1-0.5,0-1-0.3C96,94.3,95.8,94,96,93.9z M96.4,103.6
		c0.3-0.5,1.5-0.6,1.9-0.1c0.4,0.5,0.2,1-0.5,1.1C97.2,104.7,96.2,104,96.4,103.6z M98.8,105.9c-0.5,0.3-1.2,0-0.8-0.5
		c0.3-0.4,1.2-0.5,1.3-0.1C99.3,105.6,99.3,105.6,98.8,105.9z M104.6,101.9c-0.2,0.1-0.7-0.1-1.1-0.3c-0.4-0.2-0.8-0.5-1.1-0.7
		c-0.2-0.1-0.9-0.6-1.5-1.1c-0.6-0.4-1.3-0.8-1.5-0.7c-0.5,0.1-0.9-0.2-1.5-1.1c-0.3-0.4-0.7-0.9-1-1.1c-0.3-0.2-0.5-0.4-0.4-0.6
		c0.2-0.3,1.5,0.2,1.7,0.6c0.1,0.1,0.3,0.2,0.5,0c0.2-0.2,0.7-0.1,1,0.2c0.4,0.2,1.3,0.5,2,0.5c1.5,0,3.7,1.3,3.1,1.7
		c-0.4,0.3,0.3,1.2,0.7,1c0.2-0.1,0.3,0,0.4,0.2C106,101,105.3,101.7,104.6,101.9z M106.1,98.8c0.1-0.1,0.3-0.2,0.4-0.1
		c0.1,0.1,0.2,0.3,0.1,0.4c-0.1,0.1-0.3,0.2-0.4,0.1C106,99.1,106,99,106.1,98.8z M109.9,105c-1.3,0.3-4.1-1.7-3.5-2.5
		c0.1-0.1,0.3-0.1,0.5,0c0.2,0.1,0.4,0.1,0.5,0c0.1-0.1,0.9,0.3,1.8,0.9c0.9,0.6,1.6,1.2,1.6,1.3C110.7,104.8,110.3,104.9,109.9,105z
		 M111.5,102.6c-0.1,0.1-0.4,0.1-0.6-0.1c-0.3-0.2-0.3-0.4-0.2-0.5c0.2-0.1,0.5,0,0.6,0.1C111.5,102.3,111.6,102.5,111.5,102.6z
		 M129.8,108.2c0.9,0.8,0.6,1.2-0.4,0.5c-0.4-0.3-0.7-0.6-0.7-0.8C128.8,107.3,128.9,107.4,129.8,108.2z M123.5,114.1
		c0.1-0.1,0.2-0.1,0.3,0.1c0.1,0.2,0.1,0.3,0.1,0.4c0,0.1-0.2,0-0.3-0.1C123.5,114.4,123.4,114.2,123.5,114.1z M122.6,112.7
		c0.2,0,0.5,0.1,0.6,0.3c0.2,0.4-0.2,1.1-0.5,0.9c-0.1-0.1-0.3-0.3-0.4-0.6C122.2,113,122.3,112.8,122.6,112.7z M128.4,125.6
		c-0.2,0.1-0.5,0.1-0.8,0c-0.4-0.2-0.4-0.2,0.1-0.4C128.4,125.1,128.8,125.3,128.4,125.6z M175.5,148.3c-0.1,0-0.3-0.1-0.5-0.3
		c-0.1-0.2-0.1-0.2,0.2,0C175.5,148.1,175.6,148.2,175.5,148.3z M176.7,147.2c-0.1,0.1-0.4,0-0.7-0.2c-0.3-0.2-1-0.4-1.6-0.4
		c-0.5,0-1.5-0.2-2.1-0.5c-1-0.5-1.1-0.6-0.7-0.9c0.4-0.3,0.3-0.4-0.8-1.1c-0.7-0.4-2.1-1.3-3.1-2c-1.1-0.7-2.3-1.4-2.7-1.5
		c-0.4-0.2-1.2-0.7-1.7-1.4c-0.8-1-1.1-1.1-2.4-1.4c-1.2-0.3-1.9-0.7-5.4-3.3c-2.2-1.7-4.2-3.2-4.6-3.4c-0.3-0.2-2-1.3-3.6-2.4
		c-1.7-1.1-3.2-2-3.4-2c-0.3,0-1.3-0.6-6.1-3.5c-0.4-0.2-0.8-0.4-1-0.4c-0.7,0.1-0.9-0.4-0.4-1.4c0.5-1.1,0.3-1.6-0.7-1.3
		c-0.3,0.1-1,0.2-1.4,0.2c-0.8,0-0.9-0.1-1.8-1.4c-1-1.5-1.7-1.7-3.1-1.3c-0.3,0.1-0.7,0.1-0.8,0c-0.1-0.1-0.8-0.6-1.6-0.9
		c-0.4-0.2-0.8-0.5-1.1-0.7c-0.7-0.6-0.9-1.2-0.6-1.6c0.1-0.2,1-0.2,2,0c1.1,0.2,1.8,0.2,2-0.1c0.3-0.5,0.6-0.3,0.7,0.3
		c0.1,0.4,0.2,0.4,0.4,0.1c0.3-0.5,0.5-0.5,2,0.3c1,0.5,1.2,0.7,1,1c0,0,0,0,0,0c-0.1,0.2-0.5,0.3-0.7,0.2c-0.3-0.1,0,0.2,0.7,0.6
		c0.7,0.5,1.4,0.8,1.8,0.9c0.4,0,0.7,0.3,0.9,0.9c0.3,0.7,0.4,0.8,1,0.7c1-0.1,2.4,0.6,2.6,1.2c0.2,0.8,2.6,2.5,3.1,2.2
		c0.6-0.3,1.8,1,1.5,1.5c-0.1,0.2,0,0.8,0.4,1.4c0.5,0.8,0.9,1.1,1.8,1.4c0.7,0.3,1.2,0.3,1.4,0c0.2-0.3,0.7-0.1,2.2,0.6
		c1.1,0.6,2,1.1,2,1.2c0.1,0.5,2.1,1.6,2.6,1.4c0.4-0.1,0.6,0,0.8,0.4c0.2,0.5,0.4,0.6,0.9,0.6c0.4,0,1.4,0.4,2.3,1
		c1.3,0.8,1.6,1,1.5,1.3c-0.1,0.2-0.4,0.3-0.6,0.2c-0.2-0.1-0.4-0.2-0.6-0.3c-0.2-0.1-0.4-0.2-0.6-0.3c-0.2-0.1-0.4-0.1-0.5,0
		c-0.1,0.1,0.4,0.4,1,0.7c0.6,0.3,2,1,3.1,1.7c1.3,0.8,2.2,1.2,2.6,1.1c0.4-0.1,0.7,0,0.6,0.3c0,0.2,0.2,0.5,0.4,0.7
		c0.3,0.2,0.4,0.5,0.2,0.7c-0.1,0.2-0.1,0.4,0.1,0.4c0.2,0,0.4,0.2,0.6,0.5c0.2,0.3,0.1,0.4-0.1,0.3c-0.2-0.1-0.3-0.1-0.3,0.1
		c0,0.3,1.7,0.9,2.3,0.8c0.2,0,0.5,0.1,0.8,0.3c0.5,0.3,0.5,0.3-0.2,0.4c-0.5,0-0.6,0.1-0.3,0.3c0.5,0.3,2,0.6,2.2,0.4
		c0.3-0.4,1,0.4,0.9,1c-0.1,0.5-0.1,0.5,0.4,0.3c0.5-0.2,0.7-0.1,2,1c0.8,0.7,1.5,1.4,1.6,1.7c0.1,0.2,0.3,0.5,0.6,0.5
		C176.7,146.5,176.9,146.9,176.7,147.2z M177.9,146.6c0.6,0.3,1,0.9,0.8,1.2c-0.1,0.1-0.5,0-0.9-0.3
		C177.1,146.9,177.1,146.3,177.9,146.6z M183.3,152.7c-0.4,0.1-1-0.2-1.8-0.7c-0.8-0.6-1.2-0.7-1.2-0.5c-0.1,0.2-0.6,0-1.7-0.7
		c-1-0.6-1.5-1.1-1.4-1.3c0.1-0.1,0.5,0,0.9,0.2c0.4,0.3,0.9,0.4,1.2,0.3c0.3-0.1,0.8,0,1,0.2c0.3,0.2,0.5,0.4,0.6,0.4
		c0.1,0,0.8,0.4,1.6,0.9C183.8,152.5,183.9,152.6,183.3,152.7z M184.1,154c-0.3-0.1-0.3-0.4-0.1-0.7c0.2-0.3,0.5-0.4,0.6-0.3
		C185.4,153.5,184.9,154.3,184.1,154z"/>

</clipPath>

</svg>
